:SAMPLES-PER-SECOND 30
:FULLY-SPECIFIED
:DEGREES
31
root  -60.3568 33.5079 -0.0365611 20.0793 85.9322 27.8644
RightUpLeg  -2.95355 -0.721636 -5.93356
RightLeg  74.9609 11.8493 4.62716
RightFoot  -1.58617 -0.888709 9.02769
RightToes  1.16415e-010 -3.18055e-015 8.94531e-016
Spine  20.5371 3.4983 -0.532686
Spine1  16.9638 4.61426 -5.55532
HEad  -23.025 -3.08798 6.81925
LeftShoulder1  0 -2.69403e-036 -1.28585e-037
LeftArm  -17.8791 41.3853 -76.4717
LeftForeArm  -3.7947 -2.78477 -5.11141
LeftHand  1.09379 8.12144 -2.98783
RightShoulder  -2.48481e-017 0 -8.08114e-019
RightArm  5.81151 0.935837 82.4278
RightForeArm  -34.3764 37.2787 -33.2702
RightHand  1.8674 -13.2607 -9.19455
LeftUpLeg  -40.5845 -0.688249 -3.72507
LeftLeg  39.5601 -3.2512 6.83093
LeftFoot  6.94324 -0.745212 4.26063
LeftToes  4.502e-010 -1.85808e-011 5.37561e-011
32
root  -59.6636 33.0444 -0.124904 34.3367 86.2134 42.9225
RightUpLeg  -10.6514 -1.38354 -6.22958
RightLeg  84.3819 11.1001 2.92975
RightFoot  -3.31141 -0.49948 5.52043
RightToes  1.16415e-010 -3.18055e-015 8.94531e-016
Spine  26.2528 3.1207 -2.59695
Spine1  17.1759 3.52467 -4.91504
HEad  -26.4882 -1.76657 6.01667
LeftShoulder1  0 -2.69403e-036 -1.28585e-037
LeftArm  -14.8087 33.6494 -78.7966
LeftForeArm  -8.09838 -7.40057 -4.12205
LeftHand  1.05637 7.77721 -2.62163
RightShoulder  -2.48481e-017 0 -8.08114e-019
RightArm  5.88351 3.23132 82.6681
RightForeArm  -34.0771 36.9794 -33.0183
RightHand  1.87545 -13.3136 -9.16833
LeftUpLeg  -41.2425 -1.62499 -4.709
LeftLeg  44.2867 -3.87722 7.7424
LeftFoot  3.77778 -0.599661 4.03311
LeftToes  4.502e-010 -1.85808e-011 5.37561e-011
33
root  -58.9374 32.7526 -0.196166 46.1988 86.988 55.1045
RightUpLeg  -18.598 -2.69976 -5.25717
RightLeg  89.5573 10.9237 2.61391
RightFoot  -7.1844 -0.106607 2.11182
RightToes  1.16415e-010 -3.18055e-015 8.94531e-016
Spine  31.0026 2.68455 -3.49079
Spine1  17.5967 2.65916 -4.00637
HEad  -29.6844 -1.10883 5.56083
LeftShoulder1  0 -2.69403e-036 -1.28585e-037
LeftArm  -5.25348 25.3373 -80.5015
LeftForeArm  -17.1601 -14.3785 -0.671955
LeftHand  1.02759 7.51923 -1.44804
RightShoulder  -2.48481e-017 0 -8.08114e-019
RightArm  6.34233 5.68033 82.1587
RightForeArm  -33.8964 36.4842 -32.5878
RightHand  1.83046 -13.1275 -8.98766
LeftUpLeg  -41.8326 -2.57953 -4.95861
LeftLeg  48.0385 -4.56405 8.28277
LeftFoot  1.19517 -0.428486 3.36167
LeftToes  4.502e-010 -1.85808e-011 5.37561e-011
34
root  -58.2121 32.4744 -0.237898 60.9993 87.7338 69.9161
RightUpLeg  -26.5289 -3.86082 -3.61735
RightLeg  91.2296 10.8164 4.2721
RightFoot  -9.83136 -0.0433177 1.81254
RightToes  1.16415e-010 -3.18055e-015 8.94531e-016
Spine  35.338 2.40523 -3.75606
Spine1  17.7856 2.26148 -3.38544
HEad  -32.2679 -1.13043 5.69206
LeftShoulder1  0 -2.69403e-036 -1.28585e-037
LeftArm  10.5472 17.0459 -81.7958
LeftForeArm  -32.6894 -21.065 7.48918
LeftHand  0.992294 7.25991 0.156158
RightShoulder  -2.48481e-017 0 -8.08114e-019
RightArm  6.80852 7.76876 81.083
RightForeArm  -33.4013 35.8757 -32.0875
RightHand  1.77984 -12.8653 -8.9375
LeftUpLeg  -42.5553 -3.08767 -5.0333
LeftLeg  51.5517 -5.4225 8.48788
LeftFoot  -1.77596 -0.312513 3.02545
LeftToes  4.502e-010 -1.85808e-011 5.37561e-011
35
root  -57.483 32.1954 -0.276759 81.2775 88.3576 90.0475
RightUpLeg  -33.8434 -4.88055 -1.78263
RightLeg  90.0297 10.8547 6.43228
RightFoot  -11.6871 -0.0304845 2.79721
RightToes  1.16415e-010 -3.18055e-015 8.94531e-016
Spine  39.4581 2.03995 -3.40141
Spine1  17.5662 2.20994 -3.38369
HEad  -34.3471 -1.28722 6.15946
LeftShoulder1  0 -2.69403e-036 -1.28585e-037
LeftArm  18.7647 9.35988 -82.2459
LeftForeArm  -42.0881 -25.9783 15.848
LeftHand  0.94496 6.95586 1.47578
RightShoulder  -2.48481e-017 0 -8.08114e-019
RightArm  7.14898 9.61811 79.951
RightForeArm  -32.525 34.9176 -31.3255
RightHand  1.7571 -12.6843 -9.11477
LeftUpLeg  -43.2879 -3.47356 -4.93444
LeftLeg  54.8719 -6.29762 8.50882
LeftFoot  -4.65007 -0.253833 3.15146
LeftToes  4.502e-010 -1.85808e-011 5.37561e-011
36
root  -56.7724 31.9251 -0.31671 121.553 88.8212 129.984
RightUpLeg  -40.3104 -5.98327 0.139708
RightLeg  86.2999 11.1915 6.72935
RightFoot  -13.6577 0.0178121 3.12252
RightToes  1.16415e-010 -3.18055e-015 8.94531e-016
Spine  43.1126 1.40832 -2.37201
Spine1  17.4681 2.26976 -3.75487
HEad  -36.3412 -1.29559 6.71196
LeftShoulder1  0 -2.69403e-036 -1.28585e-037
LeftArm  14.2564 2.34579 -82.125
LeftForeArm  -40.0807 -30.8352 19.5739
LeftHand  0.912319 6.77445 2.40488
RightShoulder  -2.48481e-017 0 -8.08114e-019
RightArm  7.22789 11.6442 78.9322
RightForeArm  -31.8433 33.709 -30.3689
RightHand  1.77237 -12.6551 -9.4804
LeftUpLeg  -44.2564 -4.02487 -4.40883
LeftLeg  58.0856 -7.12247 8.4544
LeftFoot  -6.91233 -0.199293 3.14604
LeftToes  4.502e-010 -1.85808e-011 5.37561e-011
37
root  -56.1018 31.6123 -0.329632 167.695 88.6029 175.608
RightUpLeg  -45.9477 -6.80649 1.88125
RightLeg  81.0078 11.4616 4.99309
RightFoot  -15.1838 0.0573487 2.94122
RightToes  1.16415e-010 -3.18055e-015 8.94531e-016
Spine  46.2264 0.731088 -1.12035
Spine1  17.7858 2.33815 -4.05869
HEad  -38.3048 -1.31015 7.2122
LeftShoulder1  0 -2.69403e-036 -1.28585e-037
LeftArm  8.65704 -4.01236 -82.3542
LeftForeArm  -37.0016 -35.4565 21.4747
LeftHand  0.873554 6.58989 3.51709
RightShoulder  -2.48481e-017 0 -8.08114e-019
RightArm  7.12349 13.9338 77.853
RightForeArm  -31.5638 32.5572 -29.4648
RightHand  1.84463 -12.8629 -10.0525
LeftUpLeg  -45.5723 -4.4958 -3.69508
LeftLeg  61.392 -7.96111 8.28477
LeftFoot  -9.13101 -0.133125 2.81445
LeftToes  4.502e-010 -1.85808e-011 5.37561e-011
